<svg width="57" height="12" viewBox="0 0 57 12" fill="none" xmlns="http://www.w3.org/2000/svg">
<circle cx="5.17501" cy="5.7" r="4.95" fill="#D13535"/>
<circle cx="17.325" cy="4.95" r="4.95" fill="#05576A"/>
<circle cx="29.475" cy="7.05001" r="4.95" fill="#0820F4"/>
<circle cx="40.425" cy="6.45" r="4.95" fill="#4CC304"/>
<circle cx="51.825" cy="6.45" r="4.95" fill="#E8D102"/>
<path d="M3.4974 8.1456C3.4686 7.9664 3.4478 7.7472 3.435 7.488C3.4222 7.2288 3.4158 6.9488 3.4158 6.648C3.4158 6.3376 3.4206 6.0192 3.4302 5.6928C3.443 5.3664 3.4574 5.0528 3.4734 4.752C3.4926 4.448 3.5134 4.1792 3.5358 3.9456L4.371 3.96C4.3358 4.184 4.307 4.4336 4.2846 4.7088C4.2654 4.9808 4.2494 5.264 4.2366 5.5584C4.4638 5.5264 4.7102 5.5024 4.9758 5.4864C5.2414 5.4704 5.4974 5.4624 5.7438 5.4624C5.8622 5.4624 5.9758 5.4656 6.0846 5.472C6.0814 5.232 6.0766 5.008 6.0702 4.8C6.0638 4.592 6.0558 4.416 6.0462 4.272C6.0366 4.128 6.0254 4.0288 6.0126 3.9744L6.8382 3.9216C6.867 4.1904 6.8894 4.512 6.9054 4.8864C6.9246 5.2608 6.9342 5.6576 6.9342 6.0768C6.9342 6.416 6.9278 6.7616 6.915 7.1136C6.9022 7.4624 6.8798 7.7984 6.8478 8.1216H6.0462C6.059 8.0192 6.0686 7.88 6.075 7.704C6.0814 7.5248 6.0862 7.3232 6.0894 7.0992C6.0926 6.872 6.0942 6.6352 6.0942 6.3888C6.0942 6.344 6.0942 6.2976 6.0942 6.2496C6.0334 6.2496 5.971 6.2496 5.907 6.2496C5.8462 6.2464 5.7838 6.2448 5.7198 6.2448C5.467 6.2448 5.211 6.2544 4.9518 6.2736C4.6958 6.2896 4.451 6.3136 4.2174 6.3456C4.2174 6.448 4.2174 6.5504 4.2174 6.6528C4.2174 6.9344 4.219 7.1984 4.2222 7.4448C4.2286 7.6912 4.2382 7.9152 4.251 8.1168L3.4974 8.1456Z" fill="white"/>
<path d="M17.3802 7.37161C17.0794 7.37161 16.8058 7.3156 16.5594 7.2036C16.313 7.0948 16.1002 6.94281 15.921 6.74761C15.7418 6.55241 15.6042 6.33 15.5082 6.0804C15.4122 5.8308 15.3642 5.56681 15.3642 5.28841C15.3642 5.03241 15.4026 4.7812 15.4794 4.5348C15.5562 4.2852 15.673 4.0596 15.8298 3.858C15.9866 3.6532 16.185 3.49 16.425 3.3684C16.6682 3.2468 16.9546 3.186 17.2842 3.186C17.6266 3.186 17.9242 3.2452 18.177 3.3636C18.4298 3.4788 18.6378 3.634 18.801 3.8292C18.9642 4.0244 19.0858 4.2452 19.1658 4.4916C19.2458 4.738 19.2858 4.99081 19.2858 5.25001C19.2858 5.56041 19.2394 5.8452 19.1466 6.1044C19.0538 6.3636 18.9226 6.58921 18.753 6.78121C18.5834 6.97001 18.3818 7.1156 18.1482 7.218C17.9146 7.3204 17.6586 7.37161 17.3802 7.37161ZM17.3802 6.57C17.5722 6.57 17.7498 6.52361 17.913 6.43081C18.0762 6.33481 18.2074 6.18601 18.3066 5.98441C18.4058 5.78281 18.4554 5.5204 18.4554 5.1972C18.4554 4.9188 18.401 4.69 18.2922 4.5108C18.1834 4.3316 18.0426 4.1988 17.8698 4.1124C17.697 4.026 17.5162 3.9828 17.3274 3.9828C17.113 3.9828 16.9322 4.0212 16.785 4.098C16.6378 4.1748 16.5194 4.2788 16.4298 4.41C16.3402 4.538 16.2762 4.682 16.2378 4.842C16.1994 5.002 16.1802 5.16681 16.1802 5.33641C16.1802 5.50281 16.2122 5.66121 16.2762 5.8116C16.3402 5.95881 16.4266 6.09001 16.5354 6.20521C16.6474 6.31721 16.7754 6.40681 16.9194 6.47401C17.0634 6.53801 17.217 6.57 17.3802 6.57Z" fill="white"/>
<path d="M27.3451 9.5004C27.3355 9.1836 27.3307 8.8796 27.3307 8.5884C27.3307 8.0636 27.3467 7.5884 27.3787 7.1628C27.4107 6.7372 27.4571 6.3756 27.5179 6.078C27.5467 5.9404 27.5867 5.8076 27.6379 5.6796C27.6923 5.5516 27.7675 5.4476 27.8635 5.3676C27.9627 5.2844 28.0923 5.2428 28.2523 5.2428C28.4091 5.2428 28.5419 5.2844 28.6507 5.3676C28.7595 5.4476 28.8475 5.5452 28.9147 5.6604C28.9851 5.7756 29.0363 5.886 29.0683 5.9916C29.1515 6.2412 29.2219 6.4908 29.2795 6.7404C29.3371 6.99 29.3883 7.2284 29.4331 7.4556C29.4651 7.2892 29.5019 7.1148 29.5435 6.9324C29.5851 6.7468 29.6267 6.5724 29.6683 6.4092C29.7099 6.2428 29.7483 6.1052 29.7835 5.9964C29.9467 5.494 30.1979 5.2428 30.5371 5.2428C30.7259 5.2428 30.8859 5.3116 31.0171 5.4492C31.1483 5.5836 31.2443 5.7788 31.3051 6.0348C31.3339 6.15 31.3627 6.318 31.3915 6.5388C31.4235 6.7596 31.4523 7.022 31.4779 7.326C31.5067 7.6268 31.5307 7.9596 31.5499 8.3244C31.5723 8.6892 31.5899 9.0764 31.6027 9.486L30.7579 9.4668C30.7579 9.2972 30.7531 9.1004 30.7435 8.8764C30.7371 8.6524 30.7259 8.4204 30.7099 8.1804C30.6971 7.9372 30.6811 7.7004 30.6619 7.47C30.6459 7.2396 30.6283 7.0316 30.6091 6.846C30.5931 6.6604 30.5771 6.5132 30.5611 6.4044C30.5451 6.2924 30.5307 6.2364 30.5179 6.2364C30.5147 6.2364 30.4971 6.294 30.4651 6.4092C30.4363 6.5212 30.3995 6.6716 30.3547 6.8604C30.3131 7.0492 30.2667 7.2572 30.2155 7.4844C30.1643 7.7116 30.1131 7.9404 30.0619 8.1708C30.0139 8.398 29.9707 8.6092 29.9323 8.8044C29.8939 8.9964 29.8635 9.1532 29.8411 9.2748L29.0875 9.294C29.0491 9.1148 29.0027 8.918 28.9483 8.7036C28.8971 8.486 28.8427 8.2652 28.7851 8.0412C28.7307 7.814 28.6763 7.5964 28.6219 7.3884C28.5675 7.1772 28.5163 6.9884 28.4683 6.822C28.4235 6.6556 28.3867 6.5244 28.3579 6.4284C28.3291 6.3292 28.3115 6.2796 28.3051 6.2796C28.2923 6.2796 28.2779 6.35 28.2619 6.4908C28.2491 6.6284 28.2363 6.8156 28.2235 7.0524C28.2107 7.2892 28.1995 7.5564 28.1899 7.854C28.1835 8.1516 28.1803 8.4588 28.1803 8.7756C28.1803 8.926 28.1803 9.0636 28.1803 9.1884C28.1835 9.3132 28.1867 9.4156 28.1899 9.4956L27.3451 9.5004Z" fill="white"/>
<path d="M40.3807 8.93399C40.1055 8.93399 39.8367 8.69239 39.5743 8.20919C39.3599 7.81239 39.1647 7.32439 38.9887 6.74519C38.8159 6.16599 38.6447 5.50519 38.4751 4.76279L39.3439 4.64759C39.4335 5.07639 39.5311 5.48919 39.6367 5.88599C39.7455 6.27959 39.8559 6.63639 39.9679 6.95639C40.0831 7.27319 40.1935 7.53239 40.2991 7.73399C40.3247 7.78519 40.3487 7.82839 40.3711 7.86359C40.3967 7.89559 40.4127 7.91159 40.4191 7.91159C40.4319 7.91159 40.4479 7.89719 40.4671 7.86839C40.4895 7.83959 40.5199 7.78839 40.5583 7.71479C40.6671 7.51959 40.7839 7.26519 40.9087 6.95159C41.0367 6.63799 41.1663 6.28279 41.2975 5.88599C41.4287 5.48919 41.5519 5.07159 41.6671 4.63319L42.5215 4.79159C42.3775 5.30039 42.2303 5.77239 42.0799 6.20759C41.9295 6.63959 41.7823 7.02519 41.6383 7.36439C41.4943 7.70039 41.3615 7.98199 41.2399 8.20919C40.9807 8.69239 40.6943 8.93399 40.3807 8.93399Z" fill="white"/>
<path d="M50.6582 8.89081L49.8374 8.73721C49.991 8.11641 50.151 7.55481 50.3174 7.05241C50.487 6.55001 50.6614 6.11961 50.8406 5.76121C51.0198 5.40281 51.2022 5.12761 51.3878 4.93561C51.5766 4.74041 51.7654 4.64281 51.9542 4.64281C52.335 4.64281 52.6854 4.99641 53.0054 5.70361C53.3254 6.40761 53.5974 7.42841 53.8214 8.76601L52.9718 8.88121C52.9334 8.67001 52.8918 8.45401 52.847 8.23321C52.8022 8.00921 52.7558 7.79161 52.7078 7.58041C52.631 7.57721 52.5478 7.57561 52.4582 7.57561C52.3014 7.57561 52.135 7.57881 51.959 7.58521C51.7862 7.59161 51.615 7.60281 51.4454 7.61881C51.279 7.63161 51.1238 7.64601 50.9798 7.66201C50.919 7.86681 50.8598 8.07481 50.8022 8.28601C50.7478 8.49401 50.6998 8.69561 50.6582 8.89081ZM51.5414 6.08761C51.471 6.23801 51.3766 6.48121 51.2582 6.81721C51.3958 6.80121 51.5414 6.79001 51.695 6.78361C51.8486 6.77401 51.999 6.76921 52.1462 6.76921C52.271 6.76921 52.391 6.77241 52.5062 6.77881C52.4614 6.61561 52.4182 6.47001 52.3766 6.34201C52.3382 6.21401 52.303 6.11321 52.271 6.03961C52.2038 5.86681 52.1446 5.74521 52.0934 5.67481C52.0422 5.60121 51.9894 5.56441 51.935 5.56441C51.8774 5.56441 51.8198 5.60281 51.7622 5.67961C51.7046 5.75321 51.631 5.88921 51.5414 6.08761Z" fill="white"/>
</svg>
