<svg width="10" height="10" viewBox="0 0 10 10" fill="none" xmlns="http://www.w3.org/2000/svg">
<circle cx="4.95" cy="4.95" r="4.95" fill="white"/>
<g clip-path="url(#clip0_101_27)">
<path d="M4.99999 1.49968C4.84035 1.49968 4.68072 1.55516 4.55273 1.6657L1.63118 4.18881L1.63053 4.18913C1.50867 4.29502 1.47815 4.46355 1.52701 4.59473C1.57588 4.72591 1.70995 4.83334 1.87174 4.83334H2.33333H6.99999C7.02208 4.83365 7.04401 4.82957 7.0645 4.82133C7.085 4.8131 7.10365 4.80087 7.11938 4.78536C7.13511 4.76986 7.14759 4.75138 7.15612 4.731C7.16464 4.71063 7.16903 4.68876 7.16903 4.66667C7.16903 4.64458 7.16464 4.62272 7.15612 4.60234C7.14759 4.58196 7.13511 4.56349 7.11938 4.54798C7.10365 4.53247 7.085 4.52024 7.0645 4.51201C7.04401 4.50377 7.02208 4.49969 6.99999 4.5H2.33333H1.87174C1.84686 4.5 1.84481 4.49243 1.83951 4.4782C1.83421 4.46396 1.83113 4.45653 1.84928 4.44076L4.7705 1.91765C4.90319 1.80306 5.0968 1.80306 5.22949 1.91765L6.39094 2.92123C6.41512 2.94213 6.44479 2.95565 6.47643 2.96016C6.50807 2.96468 6.54034 2.96 6.5694 2.94669C6.59845 2.93338 6.62307 2.912 6.64031 2.88509C6.65756 2.85818 6.6667 2.82689 6.66666 2.79493V2.00001H7.16666V3.51498C7.16662 3.53894 7.17175 3.56262 7.18169 3.58441C7.19164 3.60621 7.20616 3.62561 7.22428 3.64128L8.15071 4.44076C8.16886 4.45653 8.16578 4.46396 8.16048 4.4782C8.15517 4.49243 8.15313 4.5 8.12825 4.5H7.66666C7.62246 4.50001 7.58007 4.51757 7.54881 4.54883C7.51756 4.58008 7.5 4.62247 7.49999 4.66667V8C7.49999 8.09418 7.4275 8.16667 7.33333 8.16667H6.16666C6.07249 8.16667 5.99999 8.09418 5.99999 8V6.33334C5.99999 6.0591 5.77424 5.83334 5.49999 5.83334H4.49999C4.22575 5.83334 3.99999 6.0591 3.99999 6.33334V8C3.99999 8.09418 3.9275 8.16667 3.83333 8.16667H2.66666C2.57249 8.16667 2.49999 8.09418 2.49999 8V5.33334C2.50031 5.31125 2.49623 5.28933 2.48799 5.26883C2.47975 5.24834 2.46753 5.22968 2.45202 5.21395C2.43651 5.19823 2.41803 5.18574 2.39766 5.17721C2.37728 5.16869 2.35541 5.1643 2.33333 5.1643C2.31124 5.1643 2.28937 5.16869 2.269 5.17721C2.24862 5.18574 2.23014 5.19823 2.21463 5.21395C2.19913 5.22968 2.1869 5.24834 2.17866 5.26883C2.17043 5.28933 2.16635 5.31125 2.16666 5.33334V8C2.16666 8.27417 2.3925 8.5 2.66666 8.5H3.83333C4.10749 8.5 4.33333 8.27417 4.33333 8V6.33334C4.33333 6.24091 4.40757 6.16667 4.49999 6.16667H5.49999C5.59242 6.16667 5.66666 6.24091 5.66666 6.33334V8C5.66666 8.27417 5.8925 8.5 6.16666 8.5H7.33333C7.60749 8.5 7.83333 8.27417 7.83333 8V4.83334H8.12825C8.29003 4.83334 8.42411 4.72591 8.47297 4.59473C8.52184 4.46355 8.49131 4.29503 8.36946 4.18913L8.36881 4.18881L7.49999 3.43881V2.00001C7.49999 1.81743 7.34924 1.66667 7.16666 1.66667H6.66666C6.48408 1.66667 6.33333 1.81743 6.33333 2.00001V2.43099L5.44726 1.6657C5.31927 1.55516 5.15963 1.49968 4.99999 1.49968Z" fill="#E50606"/>
</g>
<defs>
<clipPath id="clip0_101_27">
<rect width="8" height="8" fill="white" transform="translate(1 1)"/>
</clipPath>
</defs>
</svg>
