<svg xmlns="http://www.w3.org/2000/svg" xmlns:xlink="http://www.w3.org/1999/xlink" width="500" zoomAndPan="magnify" viewBox="0 0 375 374.999991" height="500" preserveAspectRatio="xMidYMid meet" version="1.0"><defs><g/><clipPath id="24549a8b9a"><path d="M 141.28125 154.722656 L 196.78125 154.722656 L 196.78125 182 L 141.28125 182 Z M 141.28125 154.722656 " clip-rule="nonzero"/></clipPath><clipPath id="8b8783aa59"><path d="M 149 164 L 189 164 L 189 201.222656 L 149 201.222656 Z M 149 164 " clip-rule="nonzero"/></clipPath></defs><rect x="-37.5" width="450" fill="#ffffff" y="-37.499999" height="449.999989" fill-opacity="1"/><rect x="-37.5" width="450" fill="#ffffff" y="-37.499999" height="449.999989" fill-opacity="1"/><g fill="#ff3131" fill-opacity="1"><g transform="translate(99.904364, 202.874987)"><g><path d="M 14.5 -19.359375 L 14.5 0 L 3.515625 0 L 3.515625 -48.25 L 14.5 -48.25 L 14.5 -29.015625 L 30.0625 -29.015625 L 30.0625 -48.25 L 41.0625 -48.25 L 41.0625 0 L 30.0625 0 L 30.0625 -19.359375 Z M 14.5 -19.359375 "/></g></g></g><g fill="#ff3131" fill-opacity="1"><g transform="translate(137.744205, 202.874987)"><g/></g></g><g fill="#ff3131" fill-opacity="1"><g transform="translate(146.981703, 202.874987)"><g/></g></g><g fill="#ff3131" fill-opacity="1"><g transform="translate(156.219201, 202.874987)"><g/></g></g><g fill="#ff3131" fill-opacity="1"><g transform="translate(165.456698, 202.874987)"><g/></g></g><g fill="#ff3131" fill-opacity="1"><g transform="translate(174.694197, 202.874987)"><g/></g></g><g fill="#ff3131" fill-opacity="1"><g transform="translate(183.931695, 202.874987)"><g/></g></g><g fill="#ff3131" fill-opacity="1"><g transform="translate(193.173889, 202.874987)"><g><path d="M 43.390625 0 L 41.109375 -28.59375 L 40.828125 -28.59375 L 30.9375 -0.296875 L 24.390625 -0.296875 L 14.5 -28.59375 L 14.21875 -28.59375 L 11.9375 0 L 0.9375 0 L 5.265625 -48.25 L 16.953125 -48.25 L 27.65625 -20.40625 L 38.359375 -48.25 L 50.0625 -48.25 L 54.390625 0 Z M 43.390625 0 "/></g></g></g><g fill="#ff3131" fill-opacity="1"><g transform="translate(241.766152, 202.874987)"><g><path d="M 18.59375 0 L -1.640625 -48.25 L 10.765625 -48.25 L 22.921875 -16.546875 L 35.09375 -48.25 L 47.484375 -48.25 L 27.25 0 Z M 18.59375 0 "/></g></g></g><g fill="#ff3131" fill-opacity="1"><g transform="translate(280.885202, 202.874987)"><g><path d="M 28.015625 -48.25 L 47.484375 0 L 35.671875 0 L 32.109375 -9.65625 L 13.75 -9.65625 L 10.171875 0 L -1.640625 0 L 17.84375 -48.25 Z M 28.359375 -19.296875 L 22.984375 -33.34375 L 22.875 -33.34375 L 17.484375 -19.296875 Z M 28.359375 -19.296875 "/></g></g></g><g clip-path="url(#24549a8b9a)"><path fill="#e44d4d" d="M 195.734375 176.859375 L 170.824219 155.351562 C 170.804688 155.339844 170.789062 155.328125 170.769531 155.3125 C 170.730469 155.28125 170.695312 155.25 170.652344 155.222656 C 170.621094 155.199219 170.589844 155.179688 170.558594 155.15625 C 170.519531 155.128906 170.480469 155.105469 170.441406 155.082031 C 170.40625 155.0625 170.371094 155.039062 170.332031 155.023438 C 170.292969 155.003906 170.257812 154.984375 170.21875 154.964844 C 170.175781 154.945312 170.136719 154.929688 170.097656 154.910156 C 170.058594 154.898438 170.023438 154.882812 169.988281 154.871094 C 169.941406 154.855469 169.898438 154.839844 169.855469 154.828125 C 169.820312 154.816406 169.785156 154.808594 169.75 154.800781 C 169.703125 154.789062 169.65625 154.777344 169.609375 154.769531 C 169.574219 154.761719 169.539062 154.757812 169.5 154.75 C 169.457031 154.742188 169.410156 154.738281 169.363281 154.734375 C 169.324219 154.730469 169.289062 154.726562 169.25 154.726562 C 169.207031 154.722656 169.164062 154.722656 169.117188 154.722656 C 169.078125 154.722656 169.039062 154.722656 168.996094 154.726562 C 168.957031 154.726562 168.914062 154.730469 168.871094 154.734375 C 168.828125 154.738281 168.785156 154.742188 168.746094 154.75 C 168.703125 154.757812 168.664062 154.761719 168.625 154.769531 C 168.582031 154.777344 168.539062 154.789062 168.496094 154.800781 C 168.457031 154.808594 168.421875 154.816406 168.382812 154.828125 C 168.339844 154.84375 168.296875 154.855469 168.257812 154.871094 C 168.21875 154.882812 168.179688 154.898438 168.140625 154.914062 C 168.101562 154.929688 168.066406 154.945312 168.027344 154.964844 C 167.988281 154.984375 167.945312 155.003906 167.902344 155.023438 C 167.871094 155.042969 167.835938 155.0625 167.804688 155.078125 C 167.761719 155.105469 167.71875 155.132812 167.679688 155.160156 C 167.648438 155.179688 167.621094 155.199219 167.589844 155.222656 C 167.546875 155.25 167.507812 155.28125 167.46875 155.316406 C 167.453125 155.328125 167.433594 155.339844 167.417969 155.351562 L 159.253906 162.402344 L 159.253906 159.566406 C 159.253906 158.796875 158.621094 158.164062 157.851562 158.164062 L 153.023438 158.164062 C 152.253906 158.164062 151.621094 158.796875 151.621094 159.566406 L 151.621094 168.988281 L 142.507812 176.859375 C 141.417969 177.800781 141.296875 179.445312 142.234375 180.53125 C 142.75 181.128906 143.476562 181.4375 144.210938 181.4375 C 144.8125 181.4375 145.417969 181.226562 145.910156 180.804688 L 169.121094 160.765625 L 192.332031 180.804688 C 192.824219 181.226562 193.429688 181.4375 194.03125 181.4375 C 194.761719 181.4375 195.488281 181.128906 196.003906 180.53125 C 196.945312 179.445312 196.824219 177.800781 195.734375 176.859375 " fill-opacity="1" fill-rule="nonzero"/></g><g clip-path="url(#8b8783aa59)"><path fill="#e44d4d" d="M 178.972656 183.460938 C 178.640625 186.933594 170.980469 193.433594 169.121094 196.777344 C 167.257812 193.433594 159.601562 186.933594 159.269531 183.460938 C 158.941406 179.988281 161.222656 177.808594 164.050781 177.808594 C 166.207031 177.808594 168.320312 179.558594 169.070312 181.613281 C 169.089844 181.667969 169.109375 181.75 169.121094 181.851562 C 169.132812 181.75 169.152344 181.667969 169.171875 181.613281 C 169.921875 179.558594 172.03125 177.808594 174.191406 177.808594 C 177.015625 177.808594 179.300781 179.988281 178.972656 183.460938 M 187.039062 179.59375 L 170.636719 165.433594 C 169.804688 164.714844 168.4375 164.714844 167.605469 165.433594 L 151.203125 179.59375 C 150.367188 180.316406 149.683594 181.808594 149.683594 182.910156 L 149.683594 199.339844 C 149.683594 200.441406 150.585938 201.34375 151.6875 201.34375 L 186.550781 201.34375 C 187.652344 201.34375 188.554688 200.441406 188.554688 199.339844 L 188.554688 182.910156 C 188.554688 181.808594 187.875 180.316406 187.039062 179.59375 " fill-opacity="1" fill-rule="nonzero"/></g><g fill="#e44d4d" fill-opacity="1"><g transform="translate(126.623858, 219.146676)"><g><path d="M 5.492188 -7.675781 C 5.109375 -7.71875 4.816406 -7.730469 4.382812 -7.730469 L 1.757812 -7.730469 L 0.390625 0 L 1.9375 0 L 2.453125 -2.914062 L 3.585938 -2.914062 C 4.035156 -2.914062 4.324219 -2.925781 4.71875 -2.96875 C 6.015625 -3.113281 7.261719 -4.066406 7.261719 -5.75 C 7.261719 -6.902344 6.488281 -7.5625 5.492188 -7.675781 Z M 4.472656 -4.167969 C 4.28125 -4.144531 4.054688 -4.132812 3.789062 -4.132812 L 2.667969 -4.132812 L 3.082031 -6.511719 L 4.203125 -6.511719 C 4.472656 -6.511719 4.71875 -6.5 4.886719 -6.476562 C 5.324219 -6.410156 5.625 -6.128906 5.625 -5.570312 C 5.625 -4.707031 5.121094 -4.269531 4.472656 -4.167969 Z M 4.472656 -4.167969 "/></g></g></g><g fill="#e44d4d" fill-opacity="1"><g transform="translate(132.38153, 219.146676)"><g><path d="M 7.40625 -5.996094 C 7.40625 -7.058594 6.667969 -7.5625 5.703125 -7.675781 C 5.324219 -7.71875 5.03125 -7.730469 4.582031 -7.730469 L 1.757812 -7.730469 L 0.390625 0 L 1.9375 0 L 2.488281 -3.113281 L 3.394531 -3.113281 C 3.597656 -3.113281 3.789062 -3.113281 3.988281 -3.105469 C 4.550781 -3.058594 4.773438 -2.609375 4.773438 -1.894531 C 4.785156 -0.773438 4.808594 -0.371094 4.875 0 L 6.542969 0 C 6.386719 -0.324219 6.320312 -0.785156 6.320312 -1.378906 C 6.320312 -2.867188 6.105469 -3.484375 5.445312 -3.707031 C 6.609375 -4 7.40625 -4.75 7.40625 -5.996094 Z M 4.402344 -4.28125 C 4.214844 -4.269531 4.035156 -4.269531 3.765625 -4.269531 L 2.6875 -4.269531 L 3.09375 -6.519531 L 4.222656 -6.519531 C 4.492188 -6.519531 4.683594 -6.511719 4.863281 -6.488281 C 5.367188 -6.433594 5.714844 -6.195312 5.714844 -5.625 C 5.714844 -4.726562 5.097656 -4.347656 4.402344 -4.28125 Z M 4.402344 -4.28125 "/></g></g></g><g fill="#e44d4d" fill-opacity="1"><g transform="translate(138.318451, 219.146676)"><g><path d="M 5.132812 -7.886719 C 2.386719 -7.886719 0.695312 -5.835938 0.695312 -3.195312 C 0.695312 -1.320312 1.917969 0.15625 4.132812 0.15625 C 6.878906 0.15625 8.570312 -1.894531 8.570312 -4.539062 C 8.570312 -6.410156 7.351562 -7.886719 5.132812 -7.886719 Z M 4.257812 -0.996094 C 3.023438 -0.996094 2.34375 -1.90625 2.34375 -3.226562 C 2.34375 -4.808594 3.195312 -6.734375 5.007812 -6.734375 C 6.230469 -6.734375 6.925781 -5.828125 6.925781 -4.503906 C 6.925781 -2.925781 6.074219 -0.996094 4.257812 -0.996094 Z M 4.257812 -0.996094 "/></g></g></g><g fill="#e44d4d" fill-opacity="1"><g transform="translate(145.778982, 219.146676)"><g><path d="M 5.492188 -7.675781 C 5.109375 -7.71875 4.816406 -7.730469 4.382812 -7.730469 L 1.757812 -7.730469 L 0.390625 0 L 1.9375 0 L 2.453125 -2.914062 L 3.585938 -2.914062 C 4.035156 -2.914062 4.324219 -2.925781 4.71875 -2.96875 C 6.015625 -3.113281 7.261719 -4.066406 7.261719 -5.75 C 7.261719 -6.902344 6.488281 -7.5625 5.492188 -7.675781 Z M 4.472656 -4.167969 C 4.28125 -4.144531 4.054688 -4.132812 3.789062 -4.132812 L 2.667969 -4.132812 L 3.082031 -6.511719 L 4.203125 -6.511719 C 4.472656 -6.511719 4.71875 -6.5 4.886719 -6.476562 C 5.324219 -6.410156 5.625 -6.128906 5.625 -5.570312 C 5.625 -4.707031 5.121094 -4.269531 4.472656 -4.167969 Z M 4.472656 -4.167969 "/></g></g></g><g fill="#e44d4d" fill-opacity="1"><g transform="translate(151.536654, 219.146676)"><g><path d="M 3.09375 -6.519531 L 7.003906 -6.519531 L 7.214844 -7.730469 L 1.757812 -7.730469 L 0.390625 0 L 5.960938 0 L 6.183594 -1.222656 L 2.152344 -1.222656 L 2.511719 -3.261719 L 6.164062 -3.261719 L 6.375 -4.480469 L 2.734375 -4.480469 Z M 3.09375 -6.519531 "/></g></g></g><g fill="#e44d4d" fill-opacity="1"><g transform="translate(157.103872, 219.146676)"><g><path d="M 7.40625 -5.996094 C 7.40625 -7.058594 6.667969 -7.5625 5.703125 -7.675781 C 5.324219 -7.71875 5.03125 -7.730469 4.582031 -7.730469 L 1.757812 -7.730469 L 0.390625 0 L 1.9375 0 L 2.488281 -3.113281 L 3.394531 -3.113281 C 3.597656 -3.113281 3.789062 -3.113281 3.988281 -3.105469 C 4.550781 -3.058594 4.773438 -2.609375 4.773438 -1.894531 C 4.785156 -0.773438 4.808594 -0.371094 4.875 0 L 6.542969 0 C 6.386719 -0.324219 6.320312 -0.785156 6.320312 -1.378906 C 6.320312 -2.867188 6.105469 -3.484375 5.445312 -3.707031 C 6.609375 -4 7.40625 -4.75 7.40625 -5.996094 Z M 4.402344 -4.28125 C 4.214844 -4.269531 4.035156 -4.269531 3.765625 -4.269531 L 2.6875 -4.269531 L 3.09375 -6.519531 L 4.222656 -6.519531 C 4.492188 -6.519531 4.683594 -6.511719 4.863281 -6.488281 C 5.367188 -6.433594 5.714844 -6.195312 5.714844 -5.625 C 5.714844 -4.726562 5.097656 -4.347656 4.402344 -4.28125 Z M 4.402344 -4.28125 "/></g></g></g><g fill="#e44d4d" fill-opacity="1"><g transform="translate(163.040792, 219.146676)"><g><path d="M 7.664062 -6.519531 L 7.886719 -7.730469 L 1.097656 -7.730469 L 0.875 -6.519531 L 3.507812 -6.519531 L 2.351562 0 L 3.898438 0 L 5.054688 -6.519531 Z M 7.664062 -6.519531 "/></g></g></g><g fill="#e44d4d" fill-opacity="1"><g transform="translate(168.731241, 219.146676)"><g><path d="M 4.515625 -2.957031 L 8.078125 -7.730469 L 6.34375 -7.730469 L 3.988281 -4.3125 L 2.722656 -7.730469 L 1.085938 -7.730469 L 2.980469 -3.015625 L 2.441406 0 L 3.988281 0 Z M 4.515625 -2.957031 "/></g></g></g><g fill="#e44d4d" fill-opacity="1"><g transform="translate(174.588698, 219.146676)"><g/></g></g><g fill="#e44d4d" fill-opacity="1"><g transform="translate(175.080933, 219.146676)"><g/></g></g><g fill="#e44d4d" fill-opacity="1"><g transform="translate(175.573168, 219.146676)"><g/></g></g><g fill="#e44d4d" fill-opacity="1"><g transform="translate(176.065403, 219.146676)"><g/></g></g><g fill="#e44d4d" fill-opacity="1"><g transform="translate(176.557638, 219.146676)"><g/></g></g><g fill="#e44d4d" fill-opacity="1"><g transform="translate(177.049873, 219.146676)"><g/></g></g><g fill="#e44d4d" fill-opacity="1"><g transform="translate(177.542107, 219.146676)"><g/></g></g><g fill="#e44d4d" fill-opacity="1"><g transform="translate(178.034342, 219.146676)"><g/></g></g><g fill="#e44d4d" fill-opacity="1"><g transform="translate(178.537917, 219.146676)"><g><path d="M 10.097656 -7.730469 L 7.53125 -7.730469 L 4.863281 -1.625 L 4.28125 -7.730469 L 1.757812 -7.730469 L 0.390625 0 L 1.9375 0 L 3.023438 -6.242188 L 3.640625 0 L 5.480469 0 L 8.304688 -6.21875 L 7.183594 0 L 8.730469 0 Z M 10.097656 -7.730469 "/></g></g></g><g fill="#e44d4d" fill-opacity="1"><g transform="translate(187.253189, 219.146676)"><g><path d="M 5.121094 -2.332031 L 5.46875 0 L 7.136719 0 L 5.804688 -7.730469 L 3.753906 -7.730469 L -0.347656 0 L 1.320312 0 L 2.488281 -2.332031 Z M 4.941406 -3.550781 L 3.105469 -3.550781 L 4.515625 -6.363281 Z M 4.941406 -3.550781 "/></g></g></g><g fill="#e44d4d" fill-opacity="1"><g transform="translate(193.582219, 219.146676)"><g><path d="M 8.550781 -7.730469 L 7.003906 -7.730469 L 5.960938 -1.714844 L 3.808594 -7.730469 L 1.757812 -7.730469 L 0.390625 0 L 1.9375 0 L 2.957031 -5.871094 L 5.066406 0 L 7.183594 0 Z M 8.550781 -7.730469 "/></g></g></g><g fill="#e44d4d" fill-opacity="1"><g transform="translate(200.751474, 219.146676)"><g><path d="M 5.121094 -2.332031 L 5.46875 0 L 7.136719 0 L 5.804688 -7.730469 L 3.753906 -7.730469 L -0.347656 0 L 1.320312 0 L 2.488281 -2.332031 Z M 4.941406 -3.550781 L 3.105469 -3.550781 L 4.515625 -6.363281 Z M 4.941406 -3.550781 "/></g></g></g><g fill="#e44d4d" fill-opacity="1"><g transform="translate(207.080504, 219.146676)"><g><path d="M 5.289062 -7.886719 C 2.824219 -7.886719 0.660156 -5.996094 0.660156 -2.992188 C 0.660156 -1.054688 1.738281 0.15625 3.5625 0.15625 C 4.414062 0.15625 5.054688 -0.0429688 5.558594 -0.46875 L 6.039062 -1.242188 L 5.925781 0 L 7.171875 0 L 7.867188 -3.945312 L 4.75 -3.945312 L 4.527344 -2.734375 L 6.164062 -2.734375 C 5.828125 -1.648438 5.007812 -0.996094 4.011719 -0.996094 C 3.003906 -0.996094 2.332031 -1.746094 2.332031 -3.183594 C 2.332031 -5.332031 3.574219 -6.734375 5.066406 -6.734375 C 6.085938 -6.734375 6.589844 -6.285156 6.601562 -5.222656 L 6.601562 -5.109375 L 8.144531 -5.109375 L 8.15625 -5.222656 C 8.269531 -6.746094 7.382812 -7.886719 5.289062 -7.886719 Z M 5.289062 -7.886719 "/></g></g></g><g fill="#e44d4d" fill-opacity="1"><g transform="translate(214.406599, 219.146676)"><g><path d="M 3.09375 -6.519531 L 7.003906 -6.519531 L 7.214844 -7.730469 L 1.757812 -7.730469 L 0.390625 0 L 5.960938 0 L 6.183594 -1.222656 L 2.152344 -1.222656 L 2.511719 -3.261719 L 6.164062 -3.261719 L 6.375 -4.480469 L 2.734375 -4.480469 Z M 3.09375 -6.519531 "/></g></g></g><g fill="#e44d4d" fill-opacity="1"><g transform="translate(219.973818, 219.146676)"><g><path d="M 10.097656 -7.730469 L 7.53125 -7.730469 L 4.863281 -1.625 L 4.28125 -7.730469 L 1.757812 -7.730469 L 0.390625 0 L 1.9375 0 L 3.023438 -6.242188 L 3.640625 0 L 5.480469 0 L 8.304688 -6.21875 L 7.183594 0 L 8.730469 0 Z M 10.097656 -7.730469 "/></g></g></g><g fill="#e44d4d" fill-opacity="1"><g transform="translate(228.689088, 219.146676)"><g><path d="M 3.09375 -6.519531 L 7.003906 -6.519531 L 7.214844 -7.730469 L 1.757812 -7.730469 L 0.390625 0 L 5.960938 0 L 6.183594 -1.222656 L 2.152344 -1.222656 L 2.511719 -3.261719 L 6.164062 -3.261719 L 6.375 -4.480469 L 2.734375 -4.480469 Z M 3.09375 -6.519531 "/></g></g></g><g fill="#e44d4d" fill-opacity="1"><g transform="translate(234.256306, 219.146676)"><g><path d="M 8.550781 -7.730469 L 7.003906 -7.730469 L 5.960938 -1.714844 L 3.808594 -7.730469 L 1.757812 -7.730469 L 0.390625 0 L 1.9375 0 L 2.957031 -5.871094 L 5.066406 0 L 7.183594 0 Z M 8.550781 -7.730469 "/></g></g></g><g fill="#e44d4d" fill-opacity="1"><g transform="translate(241.42556, 219.146676)"><g><path d="M 7.664062 -6.519531 L 7.886719 -7.730469 L 1.097656 -7.730469 L 0.875 -6.519531 L 3.507812 -6.519531 L 2.351562 0 L 3.898438 0 L 5.054688 -6.519531 Z M 7.664062 -6.519531 "/></g></g></g><g fill="#e44d4d" fill-opacity="1"><g transform="translate(247.116041, 219.146676)"><g/></g></g><g fill="#e44d4d" fill-opacity="1"><g transform="translate(247.608276, 219.146676)"><g/></g></g><g fill="#e44d4d" fill-opacity="1"><g transform="translate(248.100511, 219.146676)"><g/></g></g><g fill="#e44d4d" fill-opacity="1"><g transform="translate(248.592746, 219.146676)"><g/></g></g><g fill="#e44d4d" fill-opacity="1"><g transform="translate(249.08498, 219.146676)"><g/></g></g><g fill="#e44d4d" fill-opacity="1"><g transform="translate(249.577215, 219.146676)"><g/></g></g><g fill="#e44d4d" fill-opacity="1"><g transform="translate(250.06945, 219.146676)"><g/></g></g><g fill="#e44d4d" fill-opacity="1"><g transform="translate(250.561685, 219.146676)"><g/></g></g><g fill="#e44d4d" fill-opacity="1"><g transform="translate(251.065256, 219.146676)"><g><path d="M 5.492188 -7.675781 C 5.109375 -7.71875 4.816406 -7.730469 4.382812 -7.730469 L 1.757812 -7.730469 L 0.390625 0 L 1.9375 0 L 2.453125 -2.914062 L 3.585938 -2.914062 C 4.035156 -2.914062 4.324219 -2.925781 4.71875 -2.96875 C 6.015625 -3.113281 7.261719 -4.066406 7.261719 -5.75 C 7.261719 -6.902344 6.488281 -7.5625 5.492188 -7.675781 Z M 4.472656 -4.167969 C 4.28125 -4.144531 4.054688 -4.132812 3.789062 -4.132812 L 2.667969 -4.132812 L 3.082031 -6.511719 L 4.203125 -6.511719 C 4.472656 -6.511719 4.71875 -6.5 4.886719 -6.476562 C 5.324219 -6.410156 5.625 -6.128906 5.625 -5.570312 C 5.625 -4.707031 5.121094 -4.269531 4.472656 -4.167969 Z M 4.472656 -4.167969 "/></g></g></g><g fill="#e44d4d" fill-opacity="1"><g transform="translate(256.822928, 219.146676)"><g><path d="M 5.132812 -7.886719 C 2.386719 -7.886719 0.695312 -5.835938 0.695312 -3.195312 C 0.695312 -1.320312 1.917969 0.15625 4.132812 0.15625 C 6.878906 0.15625 8.570312 -1.894531 8.570312 -4.539062 C 8.570312 -6.410156 7.351562 -7.886719 5.132812 -7.886719 Z M 4.257812 -0.996094 C 3.023438 -0.996094 2.34375 -1.90625 2.34375 -3.226562 C 2.34375 -4.808594 3.195312 -6.734375 5.007812 -6.734375 C 6.230469 -6.734375 6.925781 -5.828125 6.925781 -4.503906 C 6.925781 -2.925781 6.074219 -0.996094 4.257812 -0.996094 Z M 4.257812 -0.996094 "/></g></g></g><g fill="#e44d4d" fill-opacity="1"><g transform="translate(264.283458, 219.146676)"><g><path d="M 7.40625 -5.996094 C 7.40625 -7.058594 6.667969 -7.5625 5.703125 -7.675781 C 5.324219 -7.71875 5.03125 -7.730469 4.582031 -7.730469 L 1.757812 -7.730469 L 0.390625 0 L 1.9375 0 L 2.488281 -3.113281 L 3.394531 -3.113281 C 3.597656 -3.113281 3.789062 -3.113281 3.988281 -3.105469 C 4.550781 -3.058594 4.773438 -2.609375 4.773438 -1.894531 C 4.785156 -0.773438 4.808594 -0.371094 4.875 0 L 6.542969 0 C 6.386719 -0.324219 6.320312 -0.785156 6.320312 -1.378906 C 6.320312 -2.867188 6.105469 -3.484375 5.445312 -3.707031 C 6.609375 -4 7.40625 -4.75 7.40625 -5.996094 Z M 4.402344 -4.28125 C 4.214844 -4.269531 4.035156 -4.269531 3.765625 -4.269531 L 2.6875 -4.269531 L 3.09375 -6.519531 L 4.222656 -6.519531 C 4.492188 -6.519531 4.683594 -6.511719 4.863281 -6.488281 C 5.367188 -6.433594 5.714844 -6.195312 5.714844 -5.625 C 5.714844 -4.726562 5.097656 -4.347656 4.402344 -4.28125 Z M 4.402344 -4.28125 "/></g></g></g><g fill="#e44d4d" fill-opacity="1"><g transform="translate(270.22038, 219.146676)"><g><path d="M 7.664062 -6.519531 L 7.886719 -7.730469 L 1.097656 -7.730469 L 0.875 -6.519531 L 3.507812 -6.519531 L 2.351562 0 L 3.898438 0 L 5.054688 -6.519531 Z M 7.664062 -6.519531 "/></g></g></g><g fill="#e44d4d" fill-opacity="1"><g transform="translate(275.910829, 219.146676)"><g><path d="M 5.121094 -2.332031 L 5.46875 0 L 7.136719 0 L 5.804688 -7.730469 L 3.753906 -7.730469 L -0.347656 0 L 1.320312 0 L 2.488281 -2.332031 Z M 4.941406 -3.550781 L 3.105469 -3.550781 L 4.515625 -6.363281 Z M 4.941406 -3.550781 "/></g></g></g><g fill="#e44d4d" fill-opacity="1"><g transform="translate(282.239858, 219.146676)"><g><path d="M 6.195312 -1.289062 L 2.164062 -1.289062 L 3.304688 -7.730469 L 1.757812 -7.730469 L 0.390625 0 L 5.960938 0 Z M 6.195312 -1.289062 "/></g></g></g></svg>